<?xml version="1.0" encoding="UTF-8" standalone="no"?>
<!-- Created with Inkscape (http://www.inkscape.org/) -->

<svg
   width="192.75908mm"
   height="196.16635mm"
   viewBox="0 0 192.75908 196.16635"
   version="1.1"
   id="svg5"
   inkscape:version="1.2.2 (b0a8486541, 2022-12-01)"
   sodipodi:docname="mattermost-qt.svg"
   inkscape:export-filename="MattermostQtLogo1024.png"
   inkscape:export-xdpi="132.58951"
   inkscape:export-ydpi="132.58951"
   xmlns:inkscape="http://www.inkscape.org/namespaces/inkscape"
   xmlns:sodipodi="http://sodipodi.sourceforge.net/DTD/sodipodi-0.dtd"
   xmlns="http://www.w3.org/2000/svg"
   xmlns:svg="http://www.w3.org/2000/svg">
  <sodipodi:namedview
     id="namedview7"
     pagecolor="#ffffff"
     bordercolor="#666666"
     borderopacity="1.0"
     inkscape:showpageshadow="2"
     inkscape:pageopacity="0.0"
     inkscape:pagecheckerboard="true"
     inkscape:deskcolor="#d1d1d1"
     inkscape:document-units="mm"
     showgrid="false"
     inkscape:zoom="0.46591611"
     inkscape:cx="339.11684"
     inkscape:cy="270.43495"
     inkscape:window-width="1366"
     inkscape:window-height="703"
     inkscape:window-x="0"
     inkscape:window-y="0"
     inkscape:window-maximized="1"
     inkscape:current-layer="layer1" />
  <defs
     id="defs2">
    <rect
       x="165.26579"
       y="257.5571"
       width="459.31015"
       height="349.84839"
       id="rect236" />
  </defs>
  <g
     inkscape:label="Layer 1"
     inkscape:groupmode="layer"
     id="layer1"
     transform="translate(-13.039818,13.585732)">
    <ellipse
       style="fill:#35322f;fill-opacity:1;stroke:#000000;stroke-width:40;stroke-linejoin:round;stroke-dasharray:none;paint-order:stroke markers fill;stop-color:#000000"
       id="path344"
       ry="78.083176"
       rx="76.379539"
       cy="84.497444"
       cx="109.41936" />
    <g
       aria-label="MQt"
       transform="matrix(0.26458333,0,0,0.26458333,2.6458334,14.81667)"
       id="text234"
       style="font-weight:600;font-size:192px;line-height:0;font-family:'URW Gothic';-inkscape-font-specification:'URW Gothic Semi-Bold';text-align:center;letter-spacing:0px;word-spacing:0px;white-space:pre;shape-inside:url(#rect236);display:inline">
      <path
         d="M 212.13699,303.44464 H 238.44099 V 197.07664 L 275.49699,303.44464 H 297.00099 L 334.05699,197.07664 V 303.44464 H 360.36099 V 161.55664 H 324.26499 L 286.44099,269.07664 248.23299,161.55664 H 212.13699 Z"
         style="fill:#5f00ff"
         id="path394" />
      <path
         d="M 530.85692,282.32464 C 528.36092,282.70864 527.20892,282.90064 525.48092,282.90064 520.87292,282.90064 517.41692,281.94064 511.27292,278.67664 522.79292,266.77264 528.36092,251.98864 528.36092,233.17264 528.36092,190.74064 496.29692,159.06064 453.09692,159.06064 410.66492,159.06064 377.64092,191.12464 377.64092,232.40464 377.64092,273.49264 411.62492,305.94064 454.63292,305.94064 468.84092,305.94064 483.81692,301.71664 493.80092,294.80464 505.89692,303.25264 515.11292,306.32464 527.59292,306.32464 528.16892,306.32464 529.32092,306.32464 530.85692,306.13264 Z M 471.52892,276.94864 C 465.57692,279.82864 461.73692,280.59664 454.63292,280.59664 436.58492,280.59664 423.33692,274.06864 412.39292,259.86064 418.34492,258.70864 421.22492,258.32464 426.02492,258.32464 441.57692,258.32464 455.01692,263.70064 471.52892,276.94864 Z M 490.34492,264.27664 C 473.06492,247.18864 448.87292,236.82064 426.40892,236.82064 417.76892,236.82064 411.04892,237.58864 404.32892,239.31664 403.94492,236.05264 403.94492,234.70864 403.94492,232.78864 403.94492,205.14064 424.87292,184.40464 452.90492,184.40464 480.93692,184.40464 501.86492,205.33264 501.86492,233.55664 501.86492,246.42064 498.02492,256.40464 490.34492,264.27664 Z"
         style="fill:#00f44a"
         id="path396" />
      <path
         d="M 547.36895,303.44464 H 572.90495 V 220.30864 H 588.26495 V 197.07664 H 572.90495 V 161.55664 H 547.36895 V 197.07664 H 534.88895 V 220.30864 H 547.36895 Z"
         style="fill:#00f44a"
         id="path398" />
    </g>
  </g>
</svg>
