<?xml version="1.0" encoding="UTF-8" standalone="no"?>
<svg
   xmlns:dc="http://purl.org/dc/elements/1.1/"
   xmlns:cc="http://creativecommons.org/ns#"
   xmlns:rdf="http://www.w3.org/1999/02/22-rdf-syntax-ns#"
   xmlns:svg="http://www.w3.org/2000/svg"
   xmlns="http://www.w3.org/2000/svg"
   xmlns:sodipodi="http://sodipodi.sourceforge.net/DTD/sodipodi-0.dtd"
   xmlns:inkscape="http://www.inkscape.org/namespaces/inkscape"
   width="192.75908mm"
   height="196.16635mm"
   viewBox="0 0 192.75908 196.16635"
   version="1.1"
   id="svg5"
   inkscape:version="1.0.1 (3bc2e813f5, 2020-09-07)"
   sodipodi:docname="mattermost-qt-dark.svg"
   inkscape:export-filename="MattermostQtLogo1024.png"
   inkscape:export-xdpi="132.58951"
   inkscape:export-ydpi="132.58951">
  <metadata
     id="metadata12">
    <rdf:RDF>
      <cc:Work
         rdf:about="">
        <dc:format>image/svg+xml</dc:format>
        <dc:type
           rdf:resource="http://purl.org/dc/dcmitype/StillImage" />
      </cc:Work>
    </rdf:RDF>
  </metadata>
  <sodipodi:namedview
     id="namedview7"
     pagecolor="#ffffff"
     bordercolor="#666666"
     borderopacity="1.0"
     inkscape:showpageshadow="2"
     inkscape:pageopacity="0.0"
     inkscape:pagecheckerboard="true"
     inkscape:deskcolor="#d1d1d1"
     inkscape:document-units="mm"
     showgrid="false"
     inkscape:zoom="0.93183222"
     inkscape:cx="11.978913"
     inkscape:cy="463.26967"
     inkscape:window-width="3440"
     inkscape:window-height="1381"
     inkscape:window-x="0"
     inkscape:window-y="0"
     inkscape:window-maximized="1"
     inkscape:current-layer="layer1"
     inkscape:document-rotation="0"
     inkscape:snap-text-baseline="false" />
  <defs
     id="defs2">
    <rect
       x="165.26579"
       y="257.5571"
       width="459.31015"
       height="349.84839"
       id="rect236" />
  </defs>
  <g
     inkscape:label="Layer 1"
     inkscape:groupmode="layer"
     id="layer1"
     transform="translate(-13.039818,13.585732)">
    <ellipse
       style="fill:#35322f;fill-opacity:1;stroke:#000000;stroke-width:40;stroke-linejoin:round;stroke-dasharray:none;paint-order:stroke markers fill;stop-color:#000000"
       id="path344"
       ry="78.083176"
       rx="76.379539"
       cy="84.497444"
       cx="109.41936" />
    <g
       aria-label="MQt"
       transform="matrix(0.37488565,0,0,0.37488565,-37.285456,-6.7300407)"
       id="text234"
       style="font-weight:600;font-size:192px;line-height:0;font-family:'URW Gothic';-inkscape-font-specification:'URW Gothic Semi-Bold';text-align:center;letter-spacing:0px;word-spacing:0px;white-space:pre;shape-inside:url(#rect236);display:inline">
      <path
         d="m 212.13699,303.44464 h 26.304 v -106.368 l 37.056,106.368 h 21.504 l 37.056,-106.368 v 106.368 h 26.304 v -141.888 h -36.096 l -37.824,107.52 -38.208,-107.52 h -36.096 z"
         style="fill:#d45500"
         id="path394" />
      <path
         d="m 530.85692,282.32464 c -2.496,0.384 -3.648,0.576 -5.376,0.576 -4.608,0 -8.064,-0.96 -14.208,-4.224 11.52,-11.904 17.088,-26.688 17.088,-45.504 0,-42.432 -32.064,-74.112 -75.264,-74.112 -42.432,0 -75.456,32.064 -75.456,73.344 0,41.088 33.984,73.536 76.992,73.536 14.208,0 29.184,-4.224 39.168,-11.136 12.096,8.448 21.312,11.52 33.792,11.52 0.576,0 1.728,0 3.264,-0.192 z m -59.328,-5.376 c -5.952,2.88 -9.792,3.648 -16.896,3.648 -18.048,0 -31.296,-6.528 -42.24,-20.736 5.952,-1.152 8.832,-1.536 13.632,-1.536 15.552,0 28.992,5.376 45.504,18.624 z m 18.816,-12.672 c -17.28,-17.088 -41.472,-27.456 -63.936,-27.456 -8.64,0 -15.36,0.768 -22.08,2.496 -0.384,-3.264 -0.384,-4.608 -0.384,-6.528 0,-27.648 20.928,-48.384 48.96,-48.384 28.032,0 48.96,20.928 48.96,49.152 0,12.864 -3.84,22.848 -11.52,30.72 z"
         style="fill:#00f44a"
         id="path396" />
      <path
         d="m 547.36895,303.44464 h 25.536 v -83.136 h 15.36 v -23.232 h -15.36 v -35.52 h -25.536 v 35.52 h -12.48 v 23.232 h 12.48 z"
         style="fill:#00f44a"
         id="path398" />
    </g>
  </g>
</svg>
