<?xml version="1.0" encoding="UTF-8" standalone="no"?>
<svg
   xmlns:dc="http://purl.org/dc/elements/1.1/"
   xmlns:cc="http://creativecommons.org/ns#"
   xmlns:rdf="http://www.w3.org/1999/02/22-rdf-syntax-ns#"
   xmlns:svg="http://www.w3.org/2000/svg"
   xmlns="http://www.w3.org/2000/svg"
   xmlns:sodipodi="http://sodipodi.sourceforge.net/DTD/sodipodi-0.dtd"
   xmlns:inkscape="http://www.inkscape.org/namespaces/inkscape"
   width="16px"
   height="10px"
   viewBox="0 0 16 10"
   version="1.1"
   role="icon"
   title="Menu Icon"
   id="svg14"
   sodipodi:docname="burger_icon.svg"
   inkscape:version="0.92.4 5da689c313, 2019-01-14">
  <metadata
     id="metadata20">
    <rdf:RDF>
      <cc:Work
         rdf:about="">
        <dc:format>image/svg+xml</dc:format>
        <dc:type
           rdf:resource="http://purl.org/dc/dcmitype/StillImage" />
      </cc:Work>
    </rdf:RDF>
  </metadata>
  <defs
     id="defs18" />
  <sodipodi:namedview
     pagecolor="#ffffff"
     bordercolor="#666666"
     borderopacity="1"
     objecttolerance="10"
     gridtolerance="10"
     guidetolerance="10"
     inkscape:pageopacity="0"
     inkscape:pageshadow="2"
     inkscape:window-width="1920"
     inkscape:window-height="1027"
     id="namedview16"
     showgrid="false"
     inkscape:zoom="18.6875"
     inkscape:cx="8"
     inkscape:cy="5"
     inkscape:window-x="0"
     inkscape:window-y="0"
     inkscape:window-maximized="1"
     inkscape:current-layer="svg14" />
  <g
     stroke="none"
     stroke-width="1"
     fill="inherit"
     fill-rule="evenodd"
     id="g12"
     style="fill:#ffffff">
    <g
       transform="translate(-188.000000, -38.000000)"
       fill-rule="nonzero"
       fill="inherit"
       id="g10"
       style="fill:#ffffff">
      <g
         id="g8"
         style="fill:#ffffff">
        <g
           id="g6"
           style="fill:#ffffff">
          <g
             transform="translate(188.000000, 38.000000)"
             id="g4"
             style="fill:#ffffff">
            <path
               d="M15.5,0 C15.776,0 16,0.224 16,0.5 L16,1.5 C16,1.776 15.776,2 15.5,2 L0.5,2 C0.224,2 0,1.776 0,1.5 L0,0.5 C0,0.224 0.224,0 0.5,0 L15.5,0 Z M15.5,4 C15.776,4 16,4.224 16,4.5 L16,5.5 C16,5.776 15.776,6 15.5,6 L0.5,6 C0.224,6 0,5.776 0,5.5 L0,4.5 C0,4.224 0.224,4 0.5,4 L15.5,4 Z M15.5,8 C15.776,8 16,8.224 16,8.5 L16,9.5 C16,9.776 15.776,10 15.5,10 L0.5,10 C0.224,10 0,9.776 0,9.5 L0,8.5 C0,8.224 0.224,8 0.5,8 L15.5,8 Z"
               id="path2"
               style="fill:#ffffff" />
          </g>
        </g>
      </g>
    </g>
  </g>
</svg>
