<?xml version="1.0" encoding="UTF-8" standalone="no"?>
<svg
   xmlns:dc="http://purl.org/dc/elements/1.1/"
   xmlns:cc="http://creativecommons.org/ns#"
   xmlns:rdf="http://www.w3.org/1999/02/22-rdf-syntax-ns#"
   xmlns:svg="http://www.w3.org/2000/svg"
   xmlns="http://www.w3.org/2000/svg"
   xmlns:sodipodi="http://sodipodi.sourceforge.net/DTD/sodipodi-0.dtd"
   xmlns:inkscape="http://www.inkscape.org/namespaces/inkscape"
   version="1.1"
   id="svg212"
   width="256"
   height="256"
   viewBox="0 0 256 256"
   sodipodi:docname="tray_icon.svg"
   inkscape:version="1.0.1 (3bc2e813f5, 2020-09-07)">
  <metadata
     id="metadata218">
    <rdf:RDF>
      <cc:Work
         rdf:about="">
        <dc:format>image/svg+xml</dc:format>
        <dc:type
           rdf:resource="http://purl.org/dc/dcmitype/StillImage" />
        <dc:title />
      </cc:Work>
    </rdf:RDF>
  </metadata>
  <defs
     id="defs216" />
  <sodipodi:namedview
     pagecolor="#ffffff"
     bordercolor="#666666"
     borderopacity="1"
     objecttolerance="10"
     gridtolerance="10"
     guidetolerance="10"
     inkscape:pageopacity="0"
     inkscape:pageshadow="2"
     inkscape:window-width="1920"
     inkscape:window-height="1027"
     id="namedview214"
     showgrid="false"
     inkscape:zoom="2.8284271"
     inkscape:cx="24.955161"
     inkscape:cy="116.79664"
     inkscape:window-x="0"
     inkscape:window-y="0"
     inkscape:window-maximized="1"
     inkscape:current-layer="g220"
     inkscape:document-rotation="0" />
  <g
     inkscape:groupmode="layer"
     inkscape:label="Image"
     id="g220">
    <path
       id="ellipse242"
       style="fill:#dfdfdf;fill-opacity:1;fill-rule:evenodd;stroke:none;stroke-width:0.222289;stroke-linecap:square"
       d="m 151.77148,55.558594 c -0.78389,0.03223 -1.28559,0.760395 -1.71289,1.291015 l -35.29882,44.486331 c -3.47598,4.03797 -5.38107,9.13989 -5.38086,14.41015 3.8e-4,12.38289 10.30277,22.4212 23.01171,22.42188 12.70973,3.8e-4 23.0133,-10.03824 23.01368,-22.42188 0,-0.77958 -0.0417,-1.55863 -0.125,-2.33398 l -1.64453,-55.369141 c -0.085,-1.241846 -0.54493,-2.455586 -1.54939,-2.485837 -0.0254,-5.12e-4 -0.28851,9.49e-4 -0.3139,0.0015 z M 128.28125,47.75 c -44.576771,2.9e-4 -80.713156,36.078086 -80.712891,80.58203 -2.65e-4,44.50394 36.13612,80.58174 80.712891,80.58203 44.57677,-2.9e-4 80.71315,-36.07809 80.71289,-80.58203 -1.6e-4,-25.74177 -12.31889,-49.934331 -33.15039,-65.103514 v 14.611328 c 10.15024,10.791377 15.78096,24.897446 15.78125,39.535156 -6.4e-4,32.31785 -26.88976,58.51617 -60.05859,58.51562 C 98.398341,175.89012 71.510403,149.69211 71.509766,117.375 71.509043,89.690774 91.419682,65.794093 119.22656,60.105469 l 10.07422,-12.347657 c -0.33982,-0.0047 -0.67967,-0.0074 -1.01953,-0.0078 z"
       sodipodi:nodetypes="cccccsccccccccscccccccc" />
  </g>
</svg>
